<svg width="27" height="27" viewBox="0 0 27 27" fill="none" xmlns="http://www.w3.org/2000/svg">
<path d="M13.5 27C20.9558 27 27 20.9558 27 13.5C27 6.04416 20.9558 0 13.5 0C6.04416 0 0 6.04416 0 13.5C0 20.9558 6.04416 27 13.5 27Z" fill="#627EEA"/>
<path d="M13.9199 3.375V10.859L20.2454 13.6856L13.9199 3.375Z" fill="white" fill-opacity="0.602"/>
<path d="M13.9202 3.375L7.59375 13.6856L13.9202 10.859V3.375Z" fill="white"/>
<path d="M13.9199 18.5356V23.6209L20.2497 14.8635L13.9199 18.5356Z" fill="white" fill-opacity="0.602"/>
<path d="M13.9202 23.6209V18.5347L7.59375 14.8635L13.9202 23.6209Z" fill="white"/>
<path d="M13.9199 17.3584L20.2454 13.6856L13.9199 10.8607V17.3584Z" fill="white" fill-opacity="0.2"/>
<path d="M7.59375 13.6856L13.9202 17.3584V10.8607L7.59375 13.6856Z" fill="white" fill-opacity="0.602"/>
</svg>
